REM DIRINDEX 1\2,1\4,1\5,1\6,1\7,1\3\8,1\3\9,1\3\10
REM DIRNAME folder01,folder02,folder03,folder04,folder05,folder06,folder07,folder08,folder09,folder10
TITLE ""
FILE "DB4500_5th_4B_29.mp3" MP3
  TRACK 01 AUDIO
    TITLE "0:"
    INDEX 01 00:00:00
  TRACK 02 AUDIO
    TITLE "8:cjc113_2842"
    INDEX 01 00:00:01
  TRACK 03 AUDIO
    TITLE "0:"
    INDEX 01 00:01:15
  TRACK 04 AUDIO
    TITLE "9:cjc113_2843"
    INDEX 01 00:01:32
  TRACK 05 AUDIO
    TITLE "0:"
    INDEX 01 00:02:65
  TRACK 06 AUDIO
    TITLE "10:cjc113_2844"
    INDEX 01 00:03:10
  TRACK 07 AUDIO
    TITLE "0:"
    INDEX 01 00:06:63
  TRACK 08 AUDIO
    TITLE "8:cjc113_2845"
    INDEX 01 00:07:29
  TRACK 09 AUDIO
    TITLE "0:"
    INDEX 01 00:08:52
  TRACK 10 AUDIO
    TITLE "9:cjc113_2846"
    INDEX 01 00:08:72
  TRACK 11 AUDIO
    TITLE "0:"
    INDEX 01 00:10:63
  TRACK 12 AUDIO
    TITLE "10:cjc113_2847"
    INDEX 01 00:11:07
  TRACK 13 AUDIO
    TITLE "0:"
    INDEX 01 00:15:54
  TRACK 14 AUDIO
    TITLE "8:cjc113_2848"
    INDEX 01 00:16:22
  TRACK 15 AUDIO
    TITLE "0:"
    INDEX 01 00:17:45
  TRACK 16 AUDIO
    TITLE "9:cjc113_2849"
    INDEX 01 00:17:65
  TRACK 17 AUDIO
    TITLE "0:"
    INDEX 01 00:19:24
  TRACK 18 AUDIO
    TITLE "10:cjc113_2850"
    INDEX 01 00:19:42
  TRACK 19 AUDIO
    TITLE "0:"
    INDEX 01 00:25:17
  TRACK 20 AUDIO
    TITLE "8:cjc113_2851"
    INDEX 01 00:25:62
  TRACK 21 AUDIO
    TITLE "0:"
    INDEX 01 00:26:71
  TRACK 22 AUDIO
    TITLE "9:cjc113_2852"
    INDEX 01 00:27:18
  TRACK 23 AUDIO
    TITLE "0:"
    INDEX 01 00:29:38
  TRACK 24 AUDIO
    TITLE "10:cjc113_2853"
    INDEX 01 00:29:58
  TRACK 25 AUDIO
    TITLE "0:"
    INDEX 01 00:34:38
  TRACK 26 AUDIO
    TITLE "8:cjc113_2854"
    INDEX 01 00:35:04
  TRACK 27 AUDIO
    TITLE "0:"
    INDEX 01 00:36:11
  TRACK 28 AUDIO
    TITLE "9:cjc113_2855"
    INDEX 01 00:36:27
  TRACK 29 AUDIO
    TITLE "0:"
    INDEX 01 00:37:52
  TRACK 30 AUDIO
    TITLE "10:cjc113_2856"
    INDEX 01 00:37:67
  TRACK 31 AUDIO
    TITLE "0:"
    INDEX 01 00:41:51
  TRACK 32 AUDIO
    TITLE "8:cjc113_2857"
    INDEX 01 00:42:19
  TRACK 33 AUDIO
    TITLE "0:"
    INDEX 01 00:43:35
  TRACK 34 AUDIO
    TITLE "9:cjc113_2858"
    INDEX 01 00:43:54
  TRACK 35 AUDIO
    TITLE "0:"
    INDEX 01 00:45:12
  TRACK 36 AUDIO
    TITLE "10:cjc113_2859"
    INDEX 01 00:45:32
  TRACK 37 AUDIO
    TITLE "0:"
    INDEX 01 00:49:04
  TRACK 38 AUDIO
    TITLE "8:cjc113_2860"
    INDEX 01 00:49:47
  TRACK 39 AUDIO
    TITLE "0:"
    INDEX 01 00:50:50
  TRACK 40 AUDIO
    TITLE "9:cjc113_2861"
    INDEX 01 00:50:68
  TRACK 41 AUDIO
    TITLE "0:"
    INDEX 01 00:52:08
  TRACK 42 AUDIO
    TITLE "10:cjc113_2862"
    INDEX 01 00:52:22
  TRACK 43 AUDIO
    TITLE "0:"
    INDEX 01 00:55:48
  TRACK 44 AUDIO
    TITLE "8:cjc113_2863"
    INDEX 01 00:56:14
  TRACK 45 AUDIO
    TITLE "0:"
    INDEX 01 00:57:23
  TRACK 46 AUDIO
    TITLE "9:cjc113_2864"
    INDEX 01 00:57:45
  TRACK 47 AUDIO
    TITLE "0:"
    INDEX 01 00:59:14
  TRACK 48 AUDIO
    TITLE "10:cjc113_2865"
    INDEX 01 00:59:28
  TRACK 49 AUDIO
    TITLE "0:"
    INDEX 01 01:03:10
  TRACK 50 AUDIO
    TITLE "8:cjc113_2866"
    INDEX 01 01:03:53
  TRACK 51 AUDIO
    TITLE "0:"
    INDEX 01 01:04:54
  TRACK 52 AUDIO
    TITLE "9:cjc113_2867"
    INDEX 01 01:04:70
  TRACK 53 AUDIO
    TITLE "0:"
    INDEX 01 01:06:30
  TRACK 54 AUDIO
    TITLE "10:cjc113_2868"
    INDEX 01 01:06:47
  TRACK 55 AUDIO
    TITLE "0:"
    INDEX 01 01:08:64
  TRACK 56 AUDIO
    TITLE "8:cjc113_2869"
    INDEX 01 01:09:38
  TRACK 57 AUDIO
    TITLE "0:"
    INDEX 01 01:10:57
  TRACK 58 AUDIO
    TITLE "9:cjc113_2870"
    INDEX 01 01:11:02
  TRACK 59 AUDIO
    TITLE "0:"
    INDEX 01 01:12:34
  TRACK 60 AUDIO
    TITLE "10:cjc113_2871"
    INDEX 01 01:12:52
  TRACK 61 AUDIO
    TITLE "0:"
    INDEX 01 01:17:18
